<mxfile host="app.diagrams.net" modified="2023-09-29T09:56:57.670Z" agent="Mozilla/5.0 (Windows NT 10.0; Win64; x64) AppleWebKit/537.36 (KHTML, like Gecko) Chrome/117.0.0.0 Safari/537.36" etag="_SHCSHDqsThEeOC3eJUZ" version="21.8.2" type="device">
  <diagram id="C5RBs43oDa-KdzZeNtuy" name="Page-1">
    <mxGraphModel dx="1011" dy="473" grid="1" gridSize="10" guides="1" tooltips="1" connect="1" arrows="1" fold="1" page="1" pageScale="1" pageWidth="827" pageHeight="1169" math="0" shadow="0">
      <root>
        <mxCell id="WIyWlLk6GJQsqaUBKTNV-0" />
        <mxCell id="WIyWlLk6GJQsqaUBKTNV-1" parent="WIyWlLk6GJQsqaUBKTNV-0" />
        <mxCell id="jX_GD5bZqcwz75eiYxPs-16" value="Admin" style="shape=umlActor;verticalLabelPosition=bottom;verticalAlign=top;html=1;outlineConnect=0;" vertex="1" parent="WIyWlLk6GJQsqaUBKTNV-1">
          <mxGeometry x="100" y="90" width="30" height="60" as="geometry" />
        </mxCell>
        <mxCell id="jX_GD5bZqcwz75eiYxPs-17" value="" style="endArrow=none;dashed=1;html=1;dashPattern=1 3;strokeWidth=2;rounded=0;" edge="1" parent="WIyWlLk6GJQsqaUBKTNV-1">
          <mxGeometry width="50" height="50" relative="1" as="geometry">
            <mxPoint x="120" y="1140" as="sourcePoint" />
            <mxPoint x="120" y="180" as="targetPoint" />
          </mxGeometry>
        </mxCell>
        <mxCell id="jX_GD5bZqcwz75eiYxPs-19" value="Add product page" style="rounded=0;whiteSpace=wrap;html=1;" vertex="1" parent="WIyWlLk6GJQsqaUBKTNV-1">
          <mxGeometry x="340" y="90" width="120" height="60" as="geometry" />
        </mxCell>
        <mxCell id="jX_GD5bZqcwz75eiYxPs-20" value="" style="endArrow=none;dashed=1;html=1;dashPattern=1 3;strokeWidth=2;rounded=0;entryX=0.5;entryY=1;entryDx=0;entryDy=0;" edge="1" parent="WIyWlLk6GJQsqaUBKTNV-1" target="jX_GD5bZqcwz75eiYxPs-19">
          <mxGeometry width="50" height="50" relative="1" as="geometry">
            <mxPoint x="400" y="1160" as="sourcePoint" />
            <mxPoint x="350" y="250" as="targetPoint" />
          </mxGeometry>
        </mxCell>
        <mxCell id="jX_GD5bZqcwz75eiYxPs-21" value="AdminController" style="rounded=0;whiteSpace=wrap;html=1;" vertex="1" parent="WIyWlLk6GJQsqaUBKTNV-1">
          <mxGeometry x="620" y="90" width="120" height="60" as="geometry" />
        </mxCell>
        <mxCell id="jX_GD5bZqcwz75eiYxPs-22" value="" style="endArrow=none;dashed=1;html=1;dashPattern=1 3;strokeWidth=2;rounded=0;entryX=0.5;entryY=1;entryDx=0;entryDy=0;" edge="1" parent="WIyWlLk6GJQsqaUBKTNV-1" source="jX_GD5bZqcwz75eiYxPs-43" target="jX_GD5bZqcwz75eiYxPs-21">
          <mxGeometry width="50" height="50" relative="1" as="geometry">
            <mxPoint x="680" y="1160" as="sourcePoint" />
            <mxPoint x="410" y="160" as="targetPoint" />
          </mxGeometry>
        </mxCell>
        <mxCell id="jX_GD5bZqcwz75eiYxPs-23" value="ImageUploader" style="rounded=0;whiteSpace=wrap;html=1;" vertex="1" parent="WIyWlLk6GJQsqaUBKTNV-1">
          <mxGeometry x="880" y="90" width="120" height="60" as="geometry" />
        </mxCell>
        <mxCell id="jX_GD5bZqcwz75eiYxPs-24" value="pDAO: ProductDAO" style="rounded=0;whiteSpace=wrap;html=1;" vertex="1" parent="WIyWlLk6GJQsqaUBKTNV-1">
          <mxGeometry x="1121" y="90" width="120" height="60" as="geometry" />
        </mxCell>
        <mxCell id="jX_GD5bZqcwz75eiYxPs-25" value="" style="endArrow=none;dashed=1;html=1;dashPattern=1 3;strokeWidth=2;rounded=0;entryX=0.5;entryY=1;entryDx=0;entryDy=0;" edge="1" parent="WIyWlLk6GJQsqaUBKTNV-1" source="jX_GD5bZqcwz75eiYxPs-49" target="jX_GD5bZqcwz75eiYxPs-23">
          <mxGeometry width="50" height="50" relative="1" as="geometry">
            <mxPoint x="940" y="1160" as="sourcePoint" />
            <mxPoint x="690" y="160" as="targetPoint" />
          </mxGeometry>
        </mxCell>
        <mxCell id="jX_GD5bZqcwz75eiYxPs-26" value="" style="endArrow=none;dashed=1;html=1;dashPattern=1 3;strokeWidth=2;rounded=0;entryX=0.5;entryY=1;entryDx=0;entryDy=0;" edge="1" parent="WIyWlLk6GJQsqaUBKTNV-1" source="jX_GD5bZqcwz75eiYxPs-62" target="jX_GD5bZqcwz75eiYxPs-24">
          <mxGeometry width="50" height="50" relative="1" as="geometry">
            <mxPoint x="1180" y="1160" as="sourcePoint" />
            <mxPoint x="700" y="170" as="targetPoint" />
            <Array as="points" />
          </mxGeometry>
        </mxCell>
        <mxCell id="jX_GD5bZqcwz75eiYxPs-27" value="Converter" style="rounded=0;whiteSpace=wrap;html=1;" vertex="1" parent="WIyWlLk6GJQsqaUBKTNV-1">
          <mxGeometry x="1390" y="90" width="120" height="60" as="geometry" />
        </mxCell>
        <mxCell id="jX_GD5bZqcwz75eiYxPs-28" value="Cloud" style="ellipse;shape=cloud;whiteSpace=wrap;html=1;" vertex="1" parent="WIyWlLk6GJQsqaUBKTNV-1">
          <mxGeometry x="1654" y="80" width="120" height="80" as="geometry" />
        </mxCell>
        <mxCell id="jX_GD5bZqcwz75eiYxPs-29" value="DB" style="shape=cylinder3;whiteSpace=wrap;html=1;boundedLbl=1;backgroundOutline=1;size=15;" vertex="1" parent="WIyWlLk6GJQsqaUBKTNV-1">
          <mxGeometry x="1960" y="80" width="60" height="80" as="geometry" />
        </mxCell>
        <mxCell id="jX_GD5bZqcwz75eiYxPs-36" value="" style="endArrow=none;dashed=1;html=1;dashPattern=1 3;strokeWidth=2;rounded=0;entryX=0.5;entryY=1;entryDx=0;entryDy=0;" edge="1" parent="WIyWlLk6GJQsqaUBKTNV-1" source="jX_GD5bZqcwz75eiYxPs-68" target="jX_GD5bZqcwz75eiYxPs-27">
          <mxGeometry width="50" height="50" relative="1" as="geometry">
            <mxPoint x="1450" y="1160" as="sourcePoint" />
            <mxPoint x="1191" y="160" as="targetPoint" />
            <Array as="points" />
          </mxGeometry>
        </mxCell>
        <mxCell id="jX_GD5bZqcwz75eiYxPs-37" value="" style="endArrow=none;dashed=1;html=1;dashPattern=1 3;strokeWidth=2;rounded=0;entryX=0.55;entryY=0.95;entryDx=0;entryDy=0;entryPerimeter=0;" edge="1" parent="WIyWlLk6GJQsqaUBKTNV-1" source="jX_GD5bZqcwz75eiYxPs-54" target="jX_GD5bZqcwz75eiYxPs-28">
          <mxGeometry width="50" height="50" relative="1" as="geometry">
            <mxPoint x="1720" y="1130" as="sourcePoint" />
            <mxPoint x="1201" y="170" as="targetPoint" />
            <Array as="points" />
          </mxGeometry>
        </mxCell>
        <mxCell id="jX_GD5bZqcwz75eiYxPs-38" value="" style="endArrow=none;dashed=1;html=1;dashPattern=1 3;strokeWidth=2;rounded=0;entryX=0.5;entryY=1;entryDx=0;entryDy=0;entryPerimeter=0;" edge="1" parent="WIyWlLk6GJQsqaUBKTNV-1" source="jX_GD5bZqcwz75eiYxPs-75" target="jX_GD5bZqcwz75eiYxPs-29">
          <mxGeometry width="50" height="50" relative="1" as="geometry">
            <mxPoint x="1990" y="1120" as="sourcePoint" />
            <mxPoint x="1211" y="180" as="targetPoint" />
            <Array as="points" />
          </mxGeometry>
        </mxCell>
        <mxCell id="jX_GD5bZqcwz75eiYxPs-39" value="" style="endArrow=classic;html=1;rounded=0;" edge="1" parent="WIyWlLk6GJQsqaUBKTNV-1">
          <mxGeometry width="50" height="50" relative="1" as="geometry">
            <mxPoint x="120" y="210" as="sourcePoint" />
            <mxPoint x="400" y="210" as="targetPoint" />
          </mxGeometry>
        </mxCell>
        <mxCell id="jX_GD5bZqcwz75eiYxPs-40" value="1. Input product information" style="edgeLabel;html=1;align=center;verticalAlign=middle;resizable=0;points=[];" vertex="1" connectable="0" parent="jX_GD5bZqcwz75eiYxPs-39">
          <mxGeometry x="0.026" y="3" relative="1" as="geometry">
            <mxPoint y="3" as="offset" />
          </mxGeometry>
        </mxCell>
        <mxCell id="jX_GD5bZqcwz75eiYxPs-41" value="" style="endArrow=classic;html=1;rounded=0;" edge="1" parent="WIyWlLk6GJQsqaUBKTNV-1">
          <mxGeometry width="50" height="50" relative="1" as="geometry">
            <mxPoint x="400" y="230" as="sourcePoint" />
            <mxPoint x="680" y="230" as="targetPoint" />
          </mxGeometry>
        </mxCell>
        <mxCell id="jX_GD5bZqcwz75eiYxPs-42" value="2. doPost()" style="edgeLabel;html=1;align=center;verticalAlign=middle;resizable=0;points=[];" vertex="1" connectable="0" parent="jX_GD5bZqcwz75eiYxPs-41">
          <mxGeometry x="0.2519" y="-2" relative="1" as="geometry">
            <mxPoint x="-35" y="-2" as="offset" />
          </mxGeometry>
        </mxCell>
        <mxCell id="jX_GD5bZqcwz75eiYxPs-44" value="" style="endArrow=none;dashed=1;html=1;dashPattern=1 3;strokeWidth=2;rounded=0;entryX=0.5;entryY=1;entryDx=0;entryDy=0;" edge="1" parent="WIyWlLk6GJQsqaUBKTNV-1" target="jX_GD5bZqcwz75eiYxPs-43">
          <mxGeometry width="50" height="50" relative="1" as="geometry">
            <mxPoint x="680" y="1160" as="sourcePoint" />
            <mxPoint x="680" y="150" as="targetPoint" />
          </mxGeometry>
        </mxCell>
        <mxCell id="jX_GD5bZqcwz75eiYxPs-43" value="" style="rounded=0;whiteSpace=wrap;html=1;" vertex="1" parent="WIyWlLk6GJQsqaUBKTNV-1">
          <mxGeometry x="675" y="230" width="10" height="770" as="geometry" />
        </mxCell>
        <mxCell id="jX_GD5bZqcwz75eiYxPs-45" value="" style="endArrow=classic;html=1;rounded=0;exitX=0.948;exitY=0.028;exitDx=0;exitDy=0;exitPerimeter=0;entryX=0.75;entryY=0;entryDx=0;entryDy=0;" edge="1" parent="WIyWlLk6GJQsqaUBKTNV-1" source="jX_GD5bZqcwz75eiYxPs-43" target="jX_GD5bZqcwz75eiYxPs-46">
          <mxGeometry width="50" height="50" relative="1" as="geometry">
            <mxPoint x="700" y="280" as="sourcePoint" />
            <mxPoint x="740" y="250" as="targetPoint" />
            <Array as="points">
              <mxPoint x="750" y="252" />
              <mxPoint x="750" y="320" />
            </Array>
          </mxGeometry>
        </mxCell>
        <mxCell id="jX_GD5bZqcwz75eiYxPs-47" value="3. addProduct()" style="edgeLabel;html=1;align=center;verticalAlign=middle;resizable=0;points=[];" vertex="1" connectable="0" parent="jX_GD5bZqcwz75eiYxPs-45">
          <mxGeometry x="-0.0389" y="2" relative="1" as="geometry">
            <mxPoint as="offset" />
          </mxGeometry>
        </mxCell>
        <mxCell id="jX_GD5bZqcwz75eiYxPs-46" value="" style="rounded=0;whiteSpace=wrap;html=1;" vertex="1" parent="WIyWlLk6GJQsqaUBKTNV-1">
          <mxGeometry x="685" y="320" width="10" height="670" as="geometry" />
        </mxCell>
        <mxCell id="jX_GD5bZqcwz75eiYxPs-48" value="" style="endArrow=classic;html=1;rounded=0;entryX=0;entryY=0;entryDx=0;entryDy=0;exitX=0.908;exitY=0.09;exitDx=0;exitDy=0;exitPerimeter=0;" edge="1" parent="WIyWlLk6GJQsqaUBKTNV-1" source="jX_GD5bZqcwz75eiYxPs-46" target="jX_GD5bZqcwz75eiYxPs-49">
          <mxGeometry width="50" height="50" relative="1" as="geometry">
            <mxPoint x="700" y="380" as="sourcePoint" />
            <mxPoint x="930" y="380" as="targetPoint" />
          </mxGeometry>
        </mxCell>
        <mxCell id="jX_GD5bZqcwz75eiYxPs-51" value="4. uploadImageToClound()" style="edgeLabel;html=1;align=center;verticalAlign=middle;resizable=0;points=[];" vertex="1" connectable="0" parent="jX_GD5bZqcwz75eiYxPs-48">
          <mxGeometry x="-0.1101" y="-1" relative="1" as="geometry">
            <mxPoint x="10" y="-1" as="offset" />
          </mxGeometry>
        </mxCell>
        <mxCell id="jX_GD5bZqcwz75eiYxPs-50" value="" style="endArrow=none;dashed=1;html=1;dashPattern=1 3;strokeWidth=2;rounded=0;entryX=0.5;entryY=1;entryDx=0;entryDy=0;" edge="1" parent="WIyWlLk6GJQsqaUBKTNV-1" target="jX_GD5bZqcwz75eiYxPs-49">
          <mxGeometry width="50" height="50" relative="1" as="geometry">
            <mxPoint x="940" y="1160" as="sourcePoint" />
            <mxPoint x="940" y="150" as="targetPoint" />
          </mxGeometry>
        </mxCell>
        <mxCell id="jX_GD5bZqcwz75eiYxPs-49" value="" style="rounded=0;whiteSpace=wrap;html=1;" vertex="1" parent="WIyWlLk6GJQsqaUBKTNV-1">
          <mxGeometry x="935" y="380" width="10" height="120" as="geometry" />
        </mxCell>
        <mxCell id="jX_GD5bZqcwz75eiYxPs-52" value="" style="endArrow=classic;html=1;rounded=0;exitX=1.126;exitY=0.316;exitDx=0;exitDy=0;exitPerimeter=0;" edge="1" parent="WIyWlLk6GJQsqaUBKTNV-1" source="jX_GD5bZqcwz75eiYxPs-49">
          <mxGeometry width="50" height="50" relative="1" as="geometry">
            <mxPoint x="970" y="420" as="sourcePoint" />
            <mxPoint x="1720" y="420" as="targetPoint" />
          </mxGeometry>
        </mxCell>
        <mxCell id="jX_GD5bZqcwz75eiYxPs-53" value="5. getResponseCode()" style="edgeLabel;html=1;align=center;verticalAlign=middle;resizable=0;points=[];" vertex="1" connectable="0" parent="jX_GD5bZqcwz75eiYxPs-52">
          <mxGeometry x="-0.1677" y="-2" relative="1" as="geometry">
            <mxPoint x="1" y="-2" as="offset" />
          </mxGeometry>
        </mxCell>
        <mxCell id="jX_GD5bZqcwz75eiYxPs-55" value="" style="endArrow=none;dashed=1;html=1;dashPattern=1 3;strokeWidth=2;rounded=0;entryX=0.55;entryY=0.95;entryDx=0;entryDy=0;entryPerimeter=0;" edge="1" parent="WIyWlLk6GJQsqaUBKTNV-1" target="jX_GD5bZqcwz75eiYxPs-54">
          <mxGeometry width="50" height="50" relative="1" as="geometry">
            <mxPoint x="1720" y="1130" as="sourcePoint" />
            <mxPoint x="1720" y="156" as="targetPoint" />
            <Array as="points" />
          </mxGeometry>
        </mxCell>
        <mxCell id="jX_GD5bZqcwz75eiYxPs-54" value="" style="rounded=0;whiteSpace=wrap;html=1;" vertex="1" parent="WIyWlLk6GJQsqaUBKTNV-1">
          <mxGeometry x="1715" y="420" width="10" height="60" as="geometry" />
        </mxCell>
        <mxCell id="jX_GD5bZqcwz75eiYxPs-56" value="" style="endArrow=classic;html=1;rounded=0;exitX=0;exitY=1;exitDx=0;exitDy=0;dashed=1;entryX=0.885;entryY=0.838;entryDx=0;entryDy=0;entryPerimeter=0;" edge="1" parent="WIyWlLk6GJQsqaUBKTNV-1" source="jX_GD5bZqcwz75eiYxPs-54" target="jX_GD5bZqcwz75eiYxPs-49">
          <mxGeometry width="50" height="50" relative="1" as="geometry">
            <mxPoint x="1460" y="480" as="sourcePoint" />
            <mxPoint x="958.0213120404412" y="480" as="targetPoint" />
          </mxGeometry>
        </mxCell>
        <mxCell id="jX_GD5bZqcwz75eiYxPs-57" value="6. return result" style="edgeLabel;html=1;align=center;verticalAlign=middle;resizable=0;points=[];" vertex="1" connectable="0" parent="jX_GD5bZqcwz75eiYxPs-56">
          <mxGeometry x="0.0092" y="-2" relative="1" as="geometry">
            <mxPoint as="offset" />
          </mxGeometry>
        </mxCell>
        <mxCell id="jX_GD5bZqcwz75eiYxPs-58" value="" style="endArrow=classic;html=1;rounded=0;exitX=0.101;exitY=0.956;exitDx=0;exitDy=0;exitPerimeter=0;dashed=1;entryX=1.07;entryY=0.263;entryDx=0;entryDy=0;entryPerimeter=0;" edge="1" parent="WIyWlLk6GJQsqaUBKTNV-1" source="jX_GD5bZqcwz75eiYxPs-49" target="jX_GD5bZqcwz75eiYxPs-46">
          <mxGeometry width="50" height="50" relative="1" as="geometry">
            <mxPoint x="830" y="560" as="sourcePoint" />
            <mxPoint x="700" y="495" as="targetPoint" />
          </mxGeometry>
        </mxCell>
        <mxCell id="jX_GD5bZqcwz75eiYxPs-59" value="7. return image URL" style="edgeLabel;html=1;align=center;verticalAlign=middle;resizable=0;points=[];" vertex="1" connectable="0" parent="jX_GD5bZqcwz75eiYxPs-58">
          <mxGeometry x="0.5594" y="1" relative="1" as="geometry">
            <mxPoint x="68" y="-6" as="offset" />
          </mxGeometry>
        </mxCell>
        <mxCell id="jX_GD5bZqcwz75eiYxPs-60" value="" style="endArrow=classic;html=1;rounded=0;exitX=0.986;exitY=0.356;exitDx=0;exitDy=0;exitPerimeter=0;entryX=0;entryY=0;entryDx=0;entryDy=0;" edge="1" parent="WIyWlLk6GJQsqaUBKTNV-1" source="jX_GD5bZqcwz75eiYxPs-46" target="jX_GD5bZqcwz75eiYxPs-62">
          <mxGeometry width="50" height="50" relative="1" as="geometry">
            <mxPoint x="700" y="560" as="sourcePoint" />
            <mxPoint x="1171.0389927455358" y="560" as="targetPoint" />
          </mxGeometry>
        </mxCell>
        <mxCell id="jX_GD5bZqcwz75eiYxPs-61" value="8. addProduct()" style="edgeLabel;html=1;align=center;verticalAlign=middle;resizable=0;points=[];" vertex="1" connectable="0" parent="jX_GD5bZqcwz75eiYxPs-60">
          <mxGeometry x="0.1964" y="4" relative="1" as="geometry">
            <mxPoint x="-172" as="offset" />
          </mxGeometry>
        </mxCell>
        <mxCell id="jX_GD5bZqcwz75eiYxPs-63" value="" style="endArrow=none;dashed=1;html=1;dashPattern=1 3;strokeWidth=2;rounded=0;entryX=0.5;entryY=1;entryDx=0;entryDy=0;" edge="1" parent="WIyWlLk6GJQsqaUBKTNV-1" target="jX_GD5bZqcwz75eiYxPs-62">
          <mxGeometry width="50" height="50" relative="1" as="geometry">
            <mxPoint x="1180" y="1160" as="sourcePoint" />
            <mxPoint x="1181" y="150" as="targetPoint" />
            <Array as="points" />
          </mxGeometry>
        </mxCell>
        <mxCell id="jX_GD5bZqcwz75eiYxPs-62" value="" style="rounded=0;whiteSpace=wrap;html=1;" vertex="1" parent="WIyWlLk6GJQsqaUBKTNV-1">
          <mxGeometry x="1176.5" y="560" width="9" height="420" as="geometry" />
        </mxCell>
        <mxCell id="jX_GD5bZqcwz75eiYxPs-66" value="" style="endArrow=classic;html=1;rounded=0;entryX=0;entryY=0;entryDx=0;entryDy=0;exitX=1;exitY=0.092;exitDx=0;exitDy=0;exitPerimeter=0;" edge="1" parent="WIyWlLk6GJQsqaUBKTNV-1" source="jX_GD5bZqcwz75eiYxPs-62" target="jX_GD5bZqcwz75eiYxPs-68">
          <mxGeometry width="50" height="50" relative="1" as="geometry">
            <mxPoint x="1200" y="600" as="sourcePoint" />
            <mxPoint x="1430" y="600" as="targetPoint" />
          </mxGeometry>
        </mxCell>
        <mxCell id="jX_GD5bZqcwz75eiYxPs-70" value="9. convertToStringData()" style="edgeLabel;html=1;align=center;verticalAlign=middle;resizable=0;points=[];" vertex="1" connectable="0" parent="jX_GD5bZqcwz75eiYxPs-66">
          <mxGeometry x="0.4166" y="1" relative="1" as="geometry">
            <mxPoint x="-43" as="offset" />
          </mxGeometry>
        </mxCell>
        <mxCell id="jX_GD5bZqcwz75eiYxPs-69" value="" style="endArrow=none;dashed=1;html=1;dashPattern=1 3;strokeWidth=2;rounded=0;entryX=0.5;entryY=1;entryDx=0;entryDy=0;" edge="1" parent="WIyWlLk6GJQsqaUBKTNV-1" target="jX_GD5bZqcwz75eiYxPs-68">
          <mxGeometry width="50" height="50" relative="1" as="geometry">
            <mxPoint x="1450" y="1160" as="sourcePoint" />
            <mxPoint x="1450" y="150" as="targetPoint" />
            <Array as="points" />
          </mxGeometry>
        </mxCell>
        <mxCell id="jX_GD5bZqcwz75eiYxPs-68" value="" style="rounded=0;whiteSpace=wrap;html=1;" vertex="1" parent="WIyWlLk6GJQsqaUBKTNV-1">
          <mxGeometry x="1445" y="600" width="10" height="60" as="geometry" />
        </mxCell>
        <mxCell id="jX_GD5bZqcwz75eiYxPs-71" value="" style="endArrow=classic;html=1;rounded=0;dashed=1;exitX=-0.073;exitY=0.824;exitDx=0;exitDy=0;exitPerimeter=0;entryX=0.895;entryY=0.212;entryDx=0;entryDy=0;entryPerimeter=0;" edge="1" parent="WIyWlLk6GJQsqaUBKTNV-1" source="jX_GD5bZqcwz75eiYxPs-68" target="jX_GD5bZqcwz75eiYxPs-62">
          <mxGeometry width="50" height="50" relative="1" as="geometry">
            <mxPoint x="1440" y="650" as="sourcePoint" />
            <mxPoint x="1200" y="649" as="targetPoint" />
          </mxGeometry>
        </mxCell>
        <mxCell id="jX_GD5bZqcwz75eiYxPs-72" value="10. string dataset" style="edgeLabel;html=1;align=center;verticalAlign=middle;resizable=0;points=[];" vertex="1" connectable="0" parent="jX_GD5bZqcwz75eiYxPs-71">
          <mxGeometry x="-0.2232" y="-2" relative="1" as="geometry">
            <mxPoint as="offset" />
          </mxGeometry>
        </mxCell>
        <mxCell id="jX_GD5bZqcwz75eiYxPs-73" value="" style="endArrow=classic;html=1;rounded=0;exitX=1.141;exitY=0.383;exitDx=0;exitDy=0;exitPerimeter=0;" edge="1" parent="WIyWlLk6GJQsqaUBKTNV-1" source="jX_GD5bZqcwz75eiYxPs-62">
          <mxGeometry width="50" height="50" relative="1" as="geometry">
            <mxPoint x="1200" y="720" as="sourcePoint" />
            <mxPoint x="1990.404052734375" y="720" as="targetPoint" />
          </mxGeometry>
        </mxCell>
        <mxCell id="jX_GD5bZqcwz75eiYxPs-74" value="11. executeUpdate()" style="edgeLabel;html=1;align=center;verticalAlign=middle;resizable=0;points=[];" vertex="1" connectable="0" parent="jX_GD5bZqcwz75eiYxPs-73">
          <mxGeometry x="-0.7454" y="2" relative="1" as="geometry">
            <mxPoint as="offset" />
          </mxGeometry>
        </mxCell>
        <mxCell id="jX_GD5bZqcwz75eiYxPs-76" value="" style="endArrow=none;dashed=1;html=1;dashPattern=1 3;strokeWidth=2;rounded=0;entryX=0.5;entryY=1;entryDx=0;entryDy=0;entryPerimeter=0;" edge="1" parent="WIyWlLk6GJQsqaUBKTNV-1" target="jX_GD5bZqcwz75eiYxPs-75">
          <mxGeometry width="50" height="50" relative="1" as="geometry">
            <mxPoint x="1990" y="1120" as="sourcePoint" />
            <mxPoint x="1990" y="160" as="targetPoint" />
            <Array as="points" />
          </mxGeometry>
        </mxCell>
        <mxCell id="jX_GD5bZqcwz75eiYxPs-75" value="" style="rounded=0;whiteSpace=wrap;html=1;" vertex="1" parent="WIyWlLk6GJQsqaUBKTNV-1">
          <mxGeometry x="1985" y="720" width="10" height="130" as="geometry" />
        </mxCell>
        <mxCell id="jX_GD5bZqcwz75eiYxPs-77" value="" style="endArrow=classic;html=1;rounded=0;dashed=1;entryX=0.663;entryY=0.668;entryDx=0;entryDy=0;entryPerimeter=0;exitX=0.109;exitY=0.915;exitDx=0;exitDy=0;exitPerimeter=0;" edge="1" parent="WIyWlLk6GJQsqaUBKTNV-1" source="jX_GD5bZqcwz75eiYxPs-75" target="jX_GD5bZqcwz75eiYxPs-62">
          <mxGeometry width="50" height="50" relative="1" as="geometry">
            <mxPoint x="1990" y="800" as="sourcePoint" />
            <mxPoint x="1190" y="840" as="targetPoint" />
          </mxGeometry>
        </mxCell>
        <mxCell id="jX_GD5bZqcwz75eiYxPs-78" value="12. return Result" style="edgeLabel;html=1;align=center;verticalAlign=middle;resizable=0;points=[];" vertex="1" connectable="0" parent="jX_GD5bZqcwz75eiYxPs-77">
          <mxGeometry x="0.5383" y="-1" relative="1" as="geometry">
            <mxPoint x="438" y="1" as="offset" />
          </mxGeometry>
        </mxCell>
        <mxCell id="jX_GD5bZqcwz75eiYxPs-79" value="" style="endArrow=classic;html=1;rounded=0;dashed=1;entryX=0.972;entryY=0.807;entryDx=0;entryDy=0;entryPerimeter=0;exitX=0;exitY=0.713;exitDx=0;exitDy=0;exitPerimeter=0;" edge="1" parent="WIyWlLk6GJQsqaUBKTNV-1" source="jX_GD5bZqcwz75eiYxPs-62" target="jX_GD5bZqcwz75eiYxPs-46">
          <mxGeometry width="50" height="50" relative="1" as="geometry">
            <mxPoint x="1170" y="860" as="sourcePoint" />
            <mxPoint x="700" y="860" as="targetPoint" />
          </mxGeometry>
        </mxCell>
        <mxCell id="jX_GD5bZqcwz75eiYxPs-81" value="13. add product fail&amp;nbsp;" style="edgeLabel;html=1;align=center;verticalAlign=middle;resizable=0;points=[];" vertex="1" connectable="0" parent="jX_GD5bZqcwz75eiYxPs-79">
          <mxGeometry x="-0.1868" y="-6" relative="1" as="geometry">
            <mxPoint x="101" y="6" as="offset" />
          </mxGeometry>
        </mxCell>
        <mxCell id="jX_GD5bZqcwz75eiYxPs-82" value="" style="endArrow=classic;html=1;rounded=0;dashed=1;" edge="1" parent="WIyWlLk6GJQsqaUBKTNV-1">
          <mxGeometry width="50" height="50" relative="1" as="geometry">
            <mxPoint x="670" y="900" as="sourcePoint" />
            <mxPoint x="120" y="900" as="targetPoint" />
          </mxGeometry>
        </mxCell>
        <mxCell id="jX_GD5bZqcwz75eiYxPs-83" value="13.1 send add product fail notification" style="edgeLabel;html=1;align=center;verticalAlign=middle;resizable=0;points=[];" vertex="1" connectable="0" parent="jX_GD5bZqcwz75eiYxPs-82">
          <mxGeometry x="-0.5818" y="3" relative="1" as="geometry">
            <mxPoint x="-35" as="offset" />
          </mxGeometry>
        </mxCell>
        <mxCell id="jX_GD5bZqcwz75eiYxPs-84" value="" style="endArrow=classic;html=1;rounded=0;dashed=1;" edge="1" parent="WIyWlLk6GJQsqaUBKTNV-1">
          <mxGeometry width="50" height="50" relative="1" as="geometry">
            <mxPoint x="670" y="980" as="sourcePoint" />
            <mxPoint x="120" y="980" as="targetPoint" />
          </mxGeometry>
        </mxCell>
        <mxCell id="jX_GD5bZqcwz75eiYxPs-85" value="14.1 send add product successful notification" style="edgeLabel;html=1;align=center;verticalAlign=middle;resizable=0;points=[];" vertex="1" connectable="0" parent="jX_GD5bZqcwz75eiYxPs-84">
          <mxGeometry x="-0.4739" y="1" relative="1" as="geometry">
            <mxPoint x="15" y="-1" as="offset" />
          </mxGeometry>
        </mxCell>
        <mxCell id="jX_GD5bZqcwz75eiYxPs-86" value="Otp" style="shape=umlFrame;whiteSpace=wrap;html=1;pointerEvents=0;" vertex="1" parent="WIyWlLk6GJQsqaUBKTNV-1">
          <mxGeometry x="50" y="800" width="1120" height="230" as="geometry" />
        </mxCell>
        <mxCell id="jX_GD5bZqcwz75eiYxPs-87" value="[Add product fail]" style="text;html=1;strokeColor=none;fillColor=none;align=center;verticalAlign=middle;whiteSpace=wrap;rounded=0;" vertex="1" parent="WIyWlLk6GJQsqaUBKTNV-1">
          <mxGeometry x="780" y="820" width="120" height="30" as="geometry" />
        </mxCell>
        <mxCell id="jX_GD5bZqcwz75eiYxPs-88" value="[Add product sussessful]" style="text;html=1;strokeColor=none;fillColor=none;align=center;verticalAlign=middle;whiteSpace=wrap;rounded=0;" vertex="1" parent="WIyWlLk6GJQsqaUBKTNV-1">
          <mxGeometry x="785" y="920" width="160" height="30" as="geometry" />
        </mxCell>
        <mxCell id="jX_GD5bZqcwz75eiYxPs-90" value="" style="endArrow=classic;html=1;rounded=0;exitX=-0.1;exitY=0.964;exitDx=0;exitDy=0;exitPerimeter=0;entryX=1.06;entryY=0.962;entryDx=0;entryDy=0;entryPerimeter=0;dashed=1;" edge="1" parent="WIyWlLk6GJQsqaUBKTNV-1" source="jX_GD5bZqcwz75eiYxPs-62" target="jX_GD5bZqcwz75eiYxPs-46">
          <mxGeometry width="50" height="50" relative="1" as="geometry">
            <mxPoint x="1010" y="980" as="sourcePoint" />
            <mxPoint x="1060" y="930" as="targetPoint" />
          </mxGeometry>
        </mxCell>
        <mxCell id="jX_GD5bZqcwz75eiYxPs-91" value="14. add product successful" style="edgeLabel;html=1;align=center;verticalAlign=middle;resizable=0;points=[];" vertex="1" connectable="0" parent="jX_GD5bZqcwz75eiYxPs-90">
          <mxGeometry x="-0.2872" y="-2" relative="1" as="geometry">
            <mxPoint x="85" y="2" as="offset" />
          </mxGeometry>
        </mxCell>
      </root>
    </mxGraphModel>
  </diagram>
</mxfile>
